<svg xmlns="http://www.w3.org/2000/svg" xmlns:xlink="http://www.w3.org/1999/xlink" width="793" zoomAndPan="magnify" viewBox="0 0 594.95996 842.24997" height="1122" preserveAspectRatio="xMidYMid meet" version="1.0"><defs><clipPath id="9039307d1c"><path d="M 34.101562 157.054688 L 560.882812 157.054688 L 560.882812 683.835938 L 34.101562 683.835938 Z M 34.101562 157.054688 " clip-rule="nonzero"/></clipPath></defs><g clip-path="url(#9039307d1c)"><path fill="#13334d" d="M 297.570312 157.097656 C 370.335938 157.097656 436.214844 186.589844 483.910156 234.277344 C 531.605469 281.960938 561.097656 347.839844 561.097656 420.613281 C 561.097656 493.375 531.605469 559.253906 483.910156 606.949219 C 436.214844 654.644531 370.34375 684.125 297.570312 684.125 C 224.808594 684.125 158.929688 654.632812 111.234375 606.949219 C 63.539062 559.265625 34.058594 493.375 34.058594 420.613281 C 34.058594 347.851562 63.550781 281.972656 111.234375 234.277344 C 158.921875 186.578125 224.808594 157.097656 297.570312 157.097656 Z M 473.554688 244.628906 C 428.515625 199.589844 366.304688 171.734375 297.570312 171.734375 C 228.851562 171.734375 166.628906 199.589844 121.589844 244.628906 C 76.550781 289.667969 48.695312 351.878906 48.695312 420.613281 C 48.695312 489.335938 76.550781 551.558594 121.589844 596.59375 C 166.628906 641.632812 228.839844 669.488281 297.570312 669.488281 C 366.292969 669.488281 428.515625 641.632812 473.554688 596.59375 C 518.59375 551.558594 546.449219 489.34375 546.449219 420.613281 C 546.449219 351.890625 518.59375 289.667969 473.554688 244.628906 Z M 473.554688 244.628906 " fill-opacity="1" fill-rule="nonzero"/></g><path fill="#13334d" d="M 222.007812 275.40625 C 226.5 275.40625 230.144531 279.050781 230.144531 283.542969 C 230.144531 288.03125 226.5 291.675781 222.007812 291.675781 C 217.519531 291.675781 213.875 288.03125 213.875 283.542969 C 213.863281 279.050781 217.507812 275.40625 222.007812 275.40625 Z M 151.367188 256.652344 C 139.15625 256.652344 129.152344 266.644531 129.152344 278.863281 L 129.152344 310.441406 L 465.988281 310.441406 L 465.988281 278.863281 C 465.988281 266.65625 456 256.652344 443.777344 256.652344 Z M 190.773438 275.40625 C 195.261719 275.40625 198.90625 279.050781 198.90625 283.542969 C 198.90625 288.03125 195.261719 291.675781 190.773438 291.675781 C 186.28125 291.675781 182.636719 288.03125 182.636719 283.542969 C 182.625 279.050781 186.269531 275.40625 190.773438 275.40625 Z M 159.535156 275.40625 C 164.027344 275.40625 167.671875 279.050781 167.671875 283.542969 C 167.671875 288.03125 164.027344 291.675781 159.535156 291.675781 C 155.042969 291.675781 151.398438 288.03125 151.398438 283.542969 C 151.386719 279.050781 155.03125 275.40625 159.535156 275.40625 Z M 159.535156 275.40625 " fill-opacity="1" fill-rule="evenodd"/><path fill="#13334d" d="M 129.152344 316.292969 L 129.152344 562.371094 C 129.152344 574.582031 139.144531 584.582031 151.367188 584.582031 L 443.789062 584.582031 C 456 584.582031 466 574.59375 466 562.371094 L 466 316.292969 Z M 204.113281 367.46875 C 214.421875 367.46875 222.765625 375.828125 222.765625 386.125 C 222.765625 396.433594 214.410156 404.78125 204.113281 404.78125 C 193.800781 404.78125 185.457031 396.425781 185.457031 386.125 C 185.457031 375.828125 193.8125 367.46875 204.113281 367.46875 Z M 204.113281 422.074219 C 210.753906 422.074219 216.585938 418.601562 219.890625 413.367188 C 229.683594 414.605469 237.328125 423.015625 237.328125 433.140625 L 237.328125 453.070312 L 170.886719 453.070312 L 170.886719 433.140625 C 170.886719 423.015625 178.53125 414.605469 188.324219 413.367188 C 191.640625 418.601562 197.46875 422.074219 204.113281 422.074219 Z M 178.75 485.65625 L 229.476562 485.65625 L 218.8125 494.867188 L 209.515625 502.90625 L 209.449219 502.960938 L 205.871094 506.046875 C 205.363281 506.484375 204.738281 506.703125 204.113281 506.703125 C 203.488281 506.703125 202.859375 506.484375 202.355469 506.046875 L 198.777344 502.960938 L 198.710938 502.90625 L 189.410156 494.867188 Z M 222.636719 499.28125 L 234.40625 489.113281 L 234.40625 521.152344 L 222.636719 510.988281 L 215.859375 505.132812 Z M 185.601562 499.28125 L 192.375 505.132812 L 185.601562 510.988281 L 173.832031 521.152344 L 173.832031 489.113281 Z M 196.84375 508.988281 L 198.535156 510.449219 C 200.160156 511.84375 202.136719 512.546875 204.113281 512.546875 C 206.089844 512.546875 208.078125 511.84375 209.691406 510.449219 L 211.382812 508.988281 L 218.804688 515.402344 L 229.464844 524.613281 L 178.738281 524.613281 L 189.398438 515.402344 Z M 256.640625 391.671875 L 424.246094 391.671875 L 424.246094 428.890625 L 256.640625 428.890625 Z M 256.640625 486.523438 L 424.246094 486.523438 L 424.246094 523.746094 L 256.640625 523.746094 Z M 256.640625 486.523438 " fill-opacity="1" fill-rule="evenodd"/></svg>