<svg xmlns="http://www.w3.org/2000/svg" xmlns:xlink="http://www.w3.org/1999/xlink" width="793" zoomAndPan="magnify" viewBox="0 0 595.5 842.249979" height="1122" preserveAspectRatio="xMidYMid meet" version="1.0"><defs><clipPath id="4358533b89"><path d="M 33.015625 156.199219 L 562 156.199219 L 562 685 L 33.015625 685 Z M 33.015625 156.199219 " clip-rule="nonzero"/></clipPath></defs><path fill="#13334d" d="M 350.621094 447.558594 L 464.355469 364.910156 L 464.355469 523.53125 C 464.335938 524.625 464.160156 525.691406 463.824219 526.730469 C 463.546875 526.507812 463.296875 526.257812 462.988281 526.035156 Z M 302.28125 482.625 C 301.925781 482.890625 301.542969 483.125 301.140625 483.320312 C 299.960938 483.914062 298.707031 484.210938 297.382812 484.210938 C 296.0625 484.210938 294.808594 483.914062 293.628906 483.320312 C 293.226562 483.125 292.84375 482.890625 292.488281 482.625 L 258.425781 457.941406 L 148.585938 534.664062 L 446.183594 534.664062 L 336.34375 457.941406 Z M 130.414062 364.910156 L 130.414062 523.53125 C 130.433594 524.625 130.609375 525.691406 130.945312 526.730469 C 131.222656 526.507812 131.472656 526.257812 131.777344 526.035156 L 244.148438 447.558594 Z M 453.222656 306.472656 L 141.546875 306.472656 C 140.816406 306.472656 140.089844 306.542969 139.375 306.683594 C 138.65625 306.828125 137.960938 307.039062 137.285156 307.316406 C 136.613281 307.597656 135.96875 307.941406 135.363281 308.347656 C 134.753906 308.753906 134.191406 309.214844 133.675781 309.730469 C 133.160156 310.25 132.695312 310.808594 132.292969 311.417969 C 131.886719 312.027344 131.542969 312.667969 131.261719 313.34375 C 130.984375 314.019531 130.773438 314.714844 130.628906 315.429688 C 130.488281 316.148438 130.414062 316.871094 130.414062 317.601562 L 130.414062 344.402344 L 263.433594 440.9375 L 297.382812 465.566406 L 331.308594 440.9375 L 464.355469 344.402344 L 464.355469 317.601562 C 464.355469 316.871094 464.28125 316.148438 464.140625 315.429688 C 463.996094 314.714844 463.785156 314.019531 463.507812 313.34375 C 463.226562 312.667969 462.882812 312.027344 462.476562 311.417969 C 462.070312 310.808594 461.609375 310.25 461.09375 309.730469 C 460.578125 309.214844 460.015625 308.753906 459.40625 308.347656 C 458.800781 307.941406 458.15625 307.597656 457.480469 307.316406 C 456.808594 307.039062 456.109375 306.828125 455.394531 306.683594 C 454.675781 306.542969 453.953125 306.472656 453.222656 306.472656 Z M 453.222656 306.472656 " fill-opacity="1" fill-rule="nonzero"/><g clip-path="url(#4358533b89)"><path fill="#13334d" d="M 297.382812 684.933594 C 293.058594 684.933594 288.734375 684.828125 284.414062 684.617188 C 280.089844 684.402344 275.777344 684.085938 271.472656 683.660156 C 267.167969 683.238281 262.875 682.707031 258.59375 682.074219 C 254.3125 681.4375 250.050781 680.699219 245.808594 679.855469 C 241.566406 679.011719 237.34375 678.0625 233.148438 677.011719 C 228.953125 675.960938 224.78125 674.808594 220.640625 673.550781 C 216.503906 672.296875 212.394531 670.9375 208.320312 669.480469 C 204.246094 668.023438 200.210938 666.464844 196.214844 664.8125 C 192.21875 663.15625 188.265625 661.402344 184.351562 659.550781 C 180.441406 657.703125 176.578125 655.757812 172.761719 653.71875 C 168.945312 651.679688 165.183594 649.546875 161.472656 647.324219 C 157.761719 645.097656 154.105469 642.785156 150.507812 640.378906 C 146.910156 637.976562 143.375 635.488281 139.902344 632.910156 C 136.425781 630.332031 133.015625 627.671875 129.671875 624.925781 C 126.328125 622.179688 123.050781 619.355469 119.84375 616.449219 C 116.640625 613.546875 113.507812 610.5625 110.449219 607.503906 C 107.386719 604.445312 104.40625 601.3125 101.5 598.105469 C 98.59375 594.898438 95.769531 591.625 93.023438 588.28125 C 90.28125 584.9375 87.621094 581.527344 85.042969 578.050781 C 82.464844 574.574219 79.972656 571.039062 77.570312 567.441406 C 75.167969 563.84375 72.851562 560.191406 70.628906 556.480469 C 68.402344 552.769531 66.273438 549.003906 64.234375 545.1875 C 62.191406 541.375 60.25 537.511719 58.398438 533.597656 C 56.546875 529.6875 54.796875 525.734375 53.140625 521.734375 C 51.484375 517.738281 49.929688 513.703125 48.46875 509.628906 C 47.011719 505.554688 45.65625 501.449219 44.398438 497.308594 C 43.144531 493.167969 41.992188 489 40.9375 484.804688 C 39.886719 480.605469 38.941406 476.386719 38.097656 472.140625 C 37.253906 467.898438 36.511719 463.636719 35.878906 459.359375 C 35.242188 455.078125 34.714844 450.785156 34.289062 446.480469 C 33.867188 442.171875 33.546875 437.859375 33.335938 433.539062 C 33.121094 429.21875 33.015625 424.894531 33.015625 420.566406 C 33.015625 416.238281 33.121094 411.917969 33.335938 407.59375 C 33.546875 403.273438 33.867188 398.960938 34.289062 394.652344 C 34.714844 390.347656 35.242188 386.054688 35.878906 381.777344 C 36.511719 377.496094 37.253906 373.234375 38.097656 368.992188 C 38.941406 364.746094 39.886719 360.527344 40.9375 356.332031 C 41.992188 352.132812 43.144531 347.964844 44.398438 343.824219 C 45.65625 339.683594 47.011719 335.578125 48.46875 331.503906 C 49.929688 327.429688 51.484375 323.394531 53.140625 319.398438 C 54.796875 315.398438 56.546875 311.445312 58.398438 307.535156 C 60.25 303.625 62.191406 299.761719 64.234375 295.945312 C 66.273438 292.128906 68.402344 288.367188 70.628906 284.65625 C 72.851562 280.941406 75.167969 277.289062 77.570312 273.691406 C 79.972656 270.09375 82.464844 266.558594 85.042969 263.082031 C 87.621094 259.609375 90.28125 256.199219 93.023438 252.851562 C 95.769531 249.507812 98.59375 246.234375 101.5 243.027344 C 104.40625 239.820312 107.386719 236.691406 110.449219 233.628906 C 113.507812 230.570312 116.640625 227.589844 119.84375 224.683594 C 123.050781 221.777344 126.328125 218.953125 129.671875 216.207031 C 133.015625 213.460938 136.425781 210.800781 139.902344 208.222656 C 143.375 205.648438 146.910156 203.15625 150.507812 200.753906 C 154.105469 198.347656 157.761719 196.035156 161.472656 193.8125 C 165.183594 191.585938 168.945312 189.453125 172.761719 187.414062 C 176.578125 185.375 180.441406 183.429688 184.351562 181.582031 C 188.265625 179.730469 192.21875 177.976562 196.214844 176.324219 C 200.210938 174.667969 204.246094 173.109375 208.320312 171.652344 C 212.394531 170.195312 216.503906 168.839844 220.640625 167.582031 C 224.78125 166.328125 228.953125 165.171875 233.148438 164.121094 C 237.34375 163.070312 241.566406 162.121094 245.808594 161.277344 C 250.050781 160.433594 254.3125 159.695312 258.59375 159.058594 C 262.875 158.425781 267.167969 157.894531 271.472656 157.472656 C 275.777344 157.046875 280.089844 156.730469 284.414062 156.515625 C 288.734375 156.304688 293.058594 156.199219 297.382812 156.199219 C 301.710938 156.199219 306.035156 156.304688 310.355469 156.515625 C 314.679688 156.730469 318.992188 157.046875 323.296875 157.472656 C 327.601562 157.894531 331.894531 158.425781 336.175781 159.058594 C 340.453125 159.695312 344.714844 160.433594 348.960938 161.277344 C 353.203125 162.121094 357.421875 163.070312 361.621094 164.121094 C 365.816406 165.171875 369.984375 166.328125 374.125 167.582031 C 378.265625 168.839844 382.375 170.195312 386.449219 171.652344 C 390.519531 173.109375 394.554688 174.667969 398.554688 176.324219 C 402.550781 177.976562 406.503906 179.730469 410.417969 181.582031 C 414.328125 183.429688 418.191406 185.375 422.007812 187.414062 C 425.824219 189.453125 429.585938 191.585938 433.296875 193.8125 C 437.007812 196.035156 440.660156 198.347656 444.257812 200.753906 C 447.855469 203.15625 451.394531 205.648438 454.867188 208.222656 C 458.34375 210.800781 461.753906 213.460938 465.097656 216.207031 C 468.441406 218.953125 471.71875 221.777344 474.921875 224.683594 C 478.128906 227.589844 481.261719 230.570312 484.320312 233.628906 C 487.378906 236.691406 490.363281 239.820312 493.269531 243.027344 C 496.175781 246.234375 499 249.507812 501.742188 252.851562 C 504.488281 256.199219 507.148438 259.609375 509.726562 263.082031 C 512.304688 266.558594 514.792969 270.09375 517.199219 273.691406 C 519.601562 277.289062 521.917969 280.941406 524.140625 284.65625 C 526.363281 288.367188 528.496094 292.128906 530.535156 295.945312 C 532.574219 299.761719 534.519531 303.625 536.371094 307.535156 C 538.21875 311.445312 539.972656 315.398438 541.628906 319.398438 C 543.285156 323.394531 544.839844 327.429688 546.296875 331.503906 C 547.757812 335.578125 549.113281 339.683594 550.367188 343.824219 C 551.625 347.964844 552.777344 352.132812 553.828125 356.332031 C 554.882812 360.527344 555.828125 364.746094 556.671875 368.992188 C 557.515625 373.234375 558.257812 377.496094 558.890625 381.777344 C 559.527344 386.054688 560.054688 390.347656 560.480469 394.652344 C 560.902344 398.960938 561.222656 403.273438 561.433594 407.59375 C 561.644531 411.917969 561.753906 416.238281 561.753906 420.566406 C 561.746094 424.890625 561.636719 429.214844 561.417969 433.535156 C 561.203125 437.855469 560.878906 442.164062 560.453125 446.46875 C 560.023438 450.773438 559.488281 455.066406 558.851562 459.34375 C 558.210938 463.621094 557.46875 467.878906 556.621094 472.121094 C 555.773438 476.363281 554.824219 480.582031 553.769531 484.773438 C 552.714844 488.96875 551.558594 493.136719 550.300781 497.273438 C 549.042969 501.414062 547.683594 505.515625 546.222656 509.589844 C 544.761719 513.660156 543.203125 517.695312 541.546875 521.6875 C 539.890625 525.683594 538.136719 529.636719 536.285156 533.542969 C 534.433594 537.453125 532.488281 541.316406 530.445312 545.128906 C 528.40625 548.941406 526.273438 552.703125 524.046875 556.414062 C 521.824219 560.121094 519.507812 563.773438 517.105469 567.371094 C 514.699219 570.964844 512.210938 574.5 509.632812 577.972656 C 507.054688 581.445312 504.394531 584.855469 501.648438 588.199219 C 498.90625 591.539062 496.082031 594.816406 493.175781 598.019531 C 490.269531 601.222656 487.289062 604.355469 484.230469 607.414062 C 481.171875 610.472656 478.042969 613.453125 474.835938 616.359375 C 471.632812 619.261719 468.359375 622.089844 465.015625 624.832031 C 461.671875 627.578125 458.265625 630.238281 454.789062 632.816406 C 451.316406 635.390625 447.78125 637.882812 444.1875 640.285156 C 440.589844 642.691406 436.9375 645.003906 433.230469 647.230469 C 429.519531 649.457031 425.761719 651.589844 421.945312 653.628906 C 418.132812 655.667969 414.269531 657.613281 410.363281 659.464844 C 406.453125 661.316406 402.5 663.070312 398.507812 664.730469 C 394.511719 666.386719 390.476562 667.945312 386.40625 669.40625 C 382.335938 670.863281 378.230469 672.222656 374.09375 673.484375 C 369.953125 674.742188 365.789062 675.898438 361.59375 676.953125 C 357.398438 678.007812 353.179688 678.957031 348.9375 679.804688 C 344.699219 680.652344 340.4375 681.394531 336.160156 682.035156 C 331.882812 682.671875 327.589844 683.207031 323.289062 683.632812 C 318.984375 684.0625 314.671875 684.386719 310.351562 684.601562 C 306.03125 684.820312 301.710938 684.929688 297.382812 684.933594 Z M 297.382812 172.894531 C 293.332031 172.894531 289.28125 172.996094 285.230469 173.195312 C 281.183594 173.394531 277.140625 173.691406 273.109375 174.089844 C 269.074219 174.484375 265.054688 174.980469 261.042969 175.578125 C 257.035156 176.171875 253.042969 176.863281 249.066406 177.65625 C 245.089844 178.445312 241.136719 179.332031 237.207031 180.316406 C 233.273438 181.304688 229.367188 182.382812 225.488281 183.558594 C 221.609375 184.738281 217.761719 186.007812 213.945312 187.375 C 210.128906 188.738281 206.347656 190.195312 202.605469 191.75 C 198.859375 193.300781 195.15625 194.941406 191.492188 196.675781 C 187.828125 198.40625 184.207031 200.230469 180.632812 202.140625 C 177.058594 204.050781 173.53125 206.046875 170.054688 208.132812 C 166.578125 210.214844 163.15625 212.382812 159.785156 214.636719 C 156.414062 216.886719 153.101562 219.222656 149.847656 221.636719 C 146.589844 224.050781 143.398438 226.542969 140.261719 229.113281 C 137.128906 231.6875 134.0625 234.332031 131.058594 237.054688 C 128.054688 239.777344 125.121094 242.570312 122.253906 245.4375 C 119.386719 248.304688 116.59375 251.238281 113.871094 254.242188 C 111.148438 257.246094 108.503906 260.3125 105.933594 263.445312 C 103.359375 266.578125 100.867188 269.773438 98.453125 273.027344 C 96.039062 276.285156 93.707031 279.597656 91.453125 282.96875 C 89.203125 286.339844 87.035156 289.761719 84.949219 293.238281 C 82.867188 296.714844 80.867188 300.242188 78.957031 303.816406 C 77.046875 307.390625 75.226562 311.007812 73.492188 314.671875 C 71.757812 318.335938 70.117188 322.042969 68.566406 325.785156 C 67.015625 329.53125 65.558594 333.3125 64.191406 337.128906 C 62.824219 340.945312 61.554688 344.792969 60.378906 348.671875 C 59.203125 352.550781 58.121094 356.457031 57.136719 360.386719 C 56.152344 364.320312 55.261719 368.273438 54.472656 372.25 C 53.679688 376.222656 52.988281 380.214844 52.394531 384.226562 C 51.800781 388.234375 51.304688 392.257812 50.90625 396.289062 C 50.507812 400.324219 50.210938 404.367188 50.011719 408.414062 C 49.8125 412.460938 49.714844 416.511719 49.714844 420.566406 C 49.714844 424.621094 49.8125 428.671875 50.011719 432.71875 C 50.210938 436.769531 50.507812 440.808594 50.90625 444.84375 C 51.304688 448.875 51.800781 452.898438 52.394531 456.90625 C 52.988281 460.917969 53.679688 464.910156 54.472656 468.886719 C 55.261719 472.859375 56.152344 476.8125 57.136719 480.746094 C 58.121094 484.679688 59.203125 488.582031 60.378906 492.460938 C 61.554688 496.339844 62.824219 500.1875 64.191406 504.003906 C 65.558594 507.820312 67.015625 511.601562 68.566406 515.347656 C 70.117188 519.089844 71.757812 522.796875 73.492188 526.460938 C 75.226562 530.125 77.046875 533.742188 78.957031 537.316406 C 80.867188 540.894531 82.867188 544.417969 84.949219 547.894531 C 87.035156 551.371094 89.203125 554.796875 91.453125 558.164062 C 93.707031 561.535156 96.039062 564.847656 98.453125 568.105469 C 100.867188 571.359375 103.359375 574.554688 105.933594 577.6875 C 108.503906 580.820312 111.148438 583.890625 113.871094 586.890625 C 116.59375 589.894531 119.386719 592.832031 122.253906 595.695312 C 125.121094 598.5625 128.054688 601.355469 131.058594 604.078125 C 134.0625 606.800781 137.128906 609.449219 140.261719 612.019531 C 143.398438 614.589844 146.589844 617.082031 149.847656 619.496094 C 153.101562 621.914062 156.414062 624.246094 159.785156 626.496094 C 163.15625 628.75 166.578125 630.917969 170.054688 633 C 173.53125 635.085938 177.058594 637.082031 180.632812 638.992188 C 184.207031 640.902344 187.828125 642.726562 191.492188 644.457031 C 195.15625 646.191406 198.859375 647.832031 202.605469 649.386719 C 206.347656 650.9375 210.128906 652.394531 213.945312 653.761719 C 217.761719 655.125 221.609375 656.398438 225.488281 657.574219 C 229.367188 658.75 233.273438 659.832031 237.207031 660.816406 C 241.136719 661.800781 245.089844 662.6875 249.066406 663.480469 C 253.042969 664.269531 257.035156 664.960938 261.042969 665.558594 C 265.054688 666.152344 269.074219 666.648438 273.109375 667.046875 C 277.140625 667.441406 281.183594 667.742188 285.230469 667.941406 C 289.28125 668.136719 293.332031 668.238281 297.382812 668.238281 C 301.4375 668.238281 305.488281 668.136719 309.539062 667.941406 C 313.585938 667.742188 317.625 667.441406 321.660156 667.046875 C 325.695312 666.648438 329.714844 666.152344 333.726562 665.558594 C 337.734375 664.960938 341.726562 664.269531 345.703125 663.480469 C 349.679688 662.6875 353.632812 661.800781 357.5625 660.816406 C 361.496094 659.832031 365.402344 658.75 369.28125 657.574219 C 373.160156 656.398438 377.007812 655.125 380.824219 653.761719 C 384.640625 652.394531 388.417969 650.9375 392.164062 649.386719 C 395.910156 647.832031 399.613281 646.191406 403.277344 644.457031 C 406.941406 642.726562 410.5625 640.902344 414.136719 638.992188 C 417.710938 637.082031 421.234375 635.085938 424.714844 633 C 428.191406 630.917969 431.613281 628.75 434.984375 626.496094 C 438.351562 624.246094 441.667969 621.914062 444.921875 619.496094 C 448.175781 617.082031 451.371094 614.589844 454.503906 612.019531 C 457.636719 609.449219 460.707031 606.800781 463.710938 604.078125 C 466.714844 601.355469 469.648438 598.5625 472.515625 595.695312 C 475.378906 592.832031 478.175781 589.894531 480.898438 586.890625 C 483.617188 583.890625 486.265625 580.820312 488.835938 577.6875 C 491.410156 574.554688 493.902344 571.359375 496.316406 568.105469 C 498.730469 564.847656 501.0625 561.535156 503.316406 558.164062 C 505.566406 554.796875 507.734375 551.371094 509.820312 547.894531 C 511.902344 544.417969 513.898438 540.894531 515.8125 537.316406 C 517.722656 533.742188 519.542969 530.125 521.277344 526.460938 C 523.007812 522.796875 524.652344 519.089844 526.203125 515.347656 C 527.753906 511.601562 529.210938 507.820312 530.578125 504.003906 C 531.941406 500.1875 533.214844 496.339844 534.390625 492.460938 C 535.566406 488.582031 536.648438 484.679688 537.632812 480.746094 C 538.617188 476.8125 539.507812 472.859375 540.296875 468.886719 C 541.085938 464.910156 541.78125 460.917969 542.375 456.90625 C 542.96875 452.898438 543.464844 448.875 543.863281 444.84375 C 544.261719 440.808594 544.558594 436.769531 544.757812 432.71875 C 544.957031 428.671875 545.054688 424.621094 545.054688 420.566406 C 545.050781 416.515625 544.945312 412.464844 544.742188 408.417969 C 544.539062 404.371094 544.238281 400.332031 543.835938 396.300781 C 543.433594 392.269531 542.933594 388.25 542.335938 384.242188 C 541.738281 380.234375 541.039062 376.242188 540.246094 372.269531 C 539.453125 368.296875 538.5625 364.34375 537.574219 360.414062 C 536.585938 356.484375 535.5 352.582031 534.324219 348.707031 C 533.144531 344.828125 531.871094 340.984375 530.503906 337.167969 C 529.132812 333.355469 527.675781 329.578125 526.121094 325.835938 C 524.566406 322.09375 522.925781 318.390625 521.191406 314.726562 C 519.457031 311.066406 517.632812 307.449219 515.722656 303.875 C 513.808594 300.304688 511.8125 296.78125 509.726562 293.304688 C 507.640625 289.832031 505.472656 286.410156 503.222656 283.039062 C 500.96875 279.671875 498.636719 276.359375 496.222656 273.105469 C 493.808594 269.851562 491.3125 266.660156 488.742188 263.527344 C 486.171875 260.394531 483.527344 257.328125 480.804688 254.328125 C 478.082031 251.324219 475.289062 248.390625 472.425781 245.527344 C 469.558594 242.660156 466.625 239.867188 463.625 237.144531 C 460.621094 234.425781 457.554688 231.777344 454.421875 229.207031 C 451.292969 226.636719 448.097656 224.144531 444.84375 221.730469 C 441.589844 219.316406 438.28125 216.980469 434.910156 214.730469 C 431.542969 212.476562 428.121094 210.308594 424.644531 208.222656 C 421.171875 206.140625 417.648438 204.140625 414.074219 202.230469 C 410.503906 200.320312 406.886719 198.496094 403.222656 196.761719 C 399.5625 195.027344 395.859375 193.382812 392.117188 191.832031 C 388.375 190.277344 384.597656 188.816406 380.78125 187.449219 C 376.96875 186.082031 373.121094 184.808594 369.246094 183.628906 C 365.367188 182.449219 361.464844 181.367188 357.535156 180.378906 C 353.605469 179.390625 349.65625 178.5 345.679688 177.703125 C 341.707031 176.910156 337.71875 176.214844 333.710938 175.617188 C 329.703125 175.015625 325.683594 174.515625 321.652344 174.117188 C 317.617188 173.714844 313.578125 173.410156 309.53125 173.207031 C 305.484375 173.003906 301.4375 172.902344 297.382812 172.894531 Z M 297.382812 172.894531 " fill-opacity="1" fill-rule="nonzero"/></g></svg>