<svg xmlns="http://www.w3.org/2000/svg" xmlns:xlink="http://www.w3.org/1999/xlink" width="793" zoomAndPan="magnify" viewBox="0 0 595.5 842.249979" height="1122" preserveAspectRatio="xMidYMid meet" version="1.0"><defs><clipPath id="cf2c83fb34"><path d="M 22.652344 145.832031 L 571.910156 145.832031 L 571.910156 695.09375 L 22.652344 695.09375 Z M 22.652344 145.832031 " clip-rule="nonzero"/></clipPath></defs><path fill="#13334d" d="M 250.601562 357.894531 C 199.269531 387.53125 277.589844 534.363281 333.765625 501.933594 L 385.847656 592.140625 C 362.144531 605.824219 342.085938 614.453125 314.609375 598.746094 C 238.316406 555.132812 154.335938 409.738281 156.730469 323.007812 C 157.5625 292.886719 175.308594 281.085938 198.519531 267.683594 L 250.601562 357.890625 Z M 250.601562 357.894531 " fill-opacity="1" fill-rule="evenodd"/><path fill="#13334d" d="M 272.132812 355.441406 C 266.585938 358.644531 259.449219 356.734375 256.246094 351.1875 L 207.144531 266.144531 C 203.941406 260.59375 205.855469 253.457031 211.402344 250.253906 L 237.207031 235.355469 C 242.753906 232.15625 249.890625 234.066406 253.09375 239.613281 L 302.195312 324.65625 C 305.394531 330.203125 303.484375 337.339844 297.9375 340.542969 Z M 272.132812 355.441406 " fill-opacity="1" fill-rule="evenodd"/><path fill="#13334d" d="M 406.265625 587.769531 C 400.71875 590.972656 393.582031 589.0625 390.378906 583.515625 L 341.28125 498.472656 C 338.078125 492.925781 339.988281 485.785156 345.535156 482.585938 L 371.339844 467.683594 C 376.886719 464.484375 384.027344 466.394531 387.230469 471.941406 L 436.328125 556.984375 C 439.53125 562.53125 437.617188 569.667969 432.070312 572.871094 Z M 406.265625 587.769531 " fill-opacity="1" fill-rule="evenodd"/><g clip-path="url(#cf2c83fb34)"><path fill="#13334d" d="M 297.300781 145.832031 L 297.304688 145.832031 L 297.304688 145.898438 C 373.175781 145.898438 441.835938 176.621094 491.496094 226.289062 C 541.15625 275.953125 571.882812 344.609375 571.882812 420.476562 L 571.949219 420.476562 L 571.949219 420.492188 L 571.882812 420.492188 C 571.882812 496.363281 541.160156 565.023438 491.492188 614.683594 C 441.828125 664.339844 373.171875 695.066406 297.304688 695.070312 L 297.304688 695.132812 L 297.289062 695.132812 L 297.289062 695.070312 C 221.417969 695.070312 152.757812 664.34375 103.097656 614.679688 C 53.441406 565.011719 22.714844 496.359375 22.710938 420.488281 L 22.648438 420.488281 L 22.648438 420.476562 L 22.710938 420.476562 C 22.714844 344.605469 53.4375 275.945312 103.101562 226.285156 C 152.769531 176.625 221.421875 145.898438 297.292969 145.898438 L 297.292969 145.832031 Z M 297.304688 178.59375 L 297.304688 178.65625 L 297.292969 178.65625 L 297.292969 178.59375 C 230.574219 178.59375 170.113281 205.691406 126.316406 249.492188 C 82.519531 293.292969 55.414062 353.757812 55.414062 420.476562 L 55.476562 420.476562 L 55.476562 420.492188 L 55.414062 420.492188 C 55.414062 487.210938 82.511719 547.671875 126.3125 591.46875 C 170.113281 635.265625 230.582031 662.371094 297.300781 662.371094 L 297.300781 662.308594 L 297.3125 662.308594 L 297.3125 662.371094 C 364.03125 662.367188 424.492188 635.269531 468.289062 591.472656 C 512.085938 547.671875 539.191406 487.203125 539.191406 420.484375 L 539.128906 420.484375 L 539.128906 420.472656 L 539.191406 420.472656 C 539.191406 353.75 512.09375 293.292969 468.292969 249.496094 C 424.492188 205.695312 364.023438 178.59375 297.304688 178.59375 Z M 297.304688 178.59375 " fill-opacity="1" fill-rule="nonzero"/></g></svg>